<svg width="803" height="826" xmlns="http://www.w3.org/2000/svg" xmlns:xlink="http://www.w3.org/1999/xlink" xml:space="preserve" overflow="hidden"><g transform="translate(-629 -787)"><path d="M641 1354C641 1318.1 670.102 1289 706 1289L1355 1289C1390.9 1289 1420 1318.1 1420 1354L1420 1354C1420 1389.9 1390.9 1419 1355 1419L706 1419C670.102 1419 641 1389.9 641 1354Z" stroke="#000000" stroke-width="24.0625" stroke-miterlimit="8" fill="none" fill-rule="evenodd"/><path d="M1151 1355C1151 1338.43 1165.1 1325 1182.5 1325 1199.9 1325 1214 1338.43 1214 1355 1214 1371.57 1199.9 1385 1182.5 1385 1165.1 1385 1151 1371.57 1151 1355Z" stroke="#000000" stroke-width="13.75" stroke-miterlimit="8" fill="none" fill-rule="evenodd"/><path d="M1296 1355C1296 1338.43 1310.1 1325 1327.5 1325 1344.9 1325 1359 1338.43 1359 1355 1359 1371.57 1344.9 1385 1327.5 1385 1310.1 1385 1296 1371.57 1296 1355Z" stroke="#000000" stroke-width="13.75" stroke-miterlimit="8" fill="none" fill-rule="evenodd"/><path d="M999 1355C999 1338.43 1013.1 1325 1030.5 1325 1047.9 1325 1062 1338.43 1062 1355 1062 1371.57 1047.9 1385 1030.5 1385 1013.1 1385 999 1371.57 999 1355Z" stroke="#000000" stroke-width="13.75" stroke-miterlimit="8" fill="none" fill-rule="evenodd"/><path d="M707 1355C707 1338.43 721.103 1325 738.5 1325 755.897 1325 770 1338.43 770 1355 770 1371.57 755.897 1385 738.5 1385 721.103 1385 707 1371.57 707 1355Z" stroke="#000000" stroke-width="13.75" stroke-miterlimit="8" fill="none" fill-rule="evenodd"/><path d="M847 1355C847 1338.43 861.103 1325 878.5 1325 895.897 1325 910 1338.43 910 1355 910 1371.57 895.897 1385 878.5 1385 861.103 1385 847 1371.57 847 1355Z" stroke="#000000" stroke-width="13.75" stroke-miterlimit="8" fill="none" fill-rule="evenodd"/><path d="M729.282 801.51C756.625 792.755 786.833 810.779 796.754 841.767L859.631 1038.14 860.999 1048.32 846.865 1035.82C833.401 1027.78 817.535 1025.23 802.459 1030.06 787.383 1034.88 775.952 1046.18 769.658 1060.54L765.415 1078.92 760.617 1069.85 697.74 873.469C687.819 842.482 701.94 810.264 729.282 801.51Z" stroke="#000000" stroke-width="24.0625" stroke-miterlimit="8" fill="none" fill-rule="evenodd"/><path d="M938 827 1011.76 827C1022.38 827 1031 843.341 1031 863.5 1031 883.659 1022.38 900 1011.76 900L938 900Z" stroke="#000000" stroke-width="24.0625" stroke-miterlimit="8" fill="none" fill-rule="evenodd"/><path d="M762 1095C762 1059.1 787.744 1030 819.5 1030 851.256 1030 877 1059.1 877 1095 877 1130.9 851.256 1160 819.5 1160 787.744 1160 762 1130.9 762 1095Z" stroke="#000000" stroke-width="24.0625" stroke-miterlimit="8" fill="none" fill-rule="evenodd"/><path d="M799 822 938 822 938 909 823.821 909 799 822Z" stroke="#000000" stroke-width="24.0625" stroke-miterlimit="8" fill="none" fill-rule="evenodd"/><path d="M780.002 1153 781.588 1153.97C793.368 1159.6 806.32 1162.71 819.915 1162.71 826.713 1162.71 833.35 1161.94 839.76 1160.45L850 1156.86 850 1285 689 1285Z" stroke="#000000" stroke-width="24.0625" stroke-miterlimit="8" fill="none" fill-rule="evenodd"/><path d="M990 864.5C990 852.626 998.507 843 1009 843 1019.49 843 1028 852.626 1028 864.5 1028 876.374 1019.49 886 1009 886 998.507 886 990 876.374 990 864.5Z" stroke="#000000" stroke-width="24.0625" stroke-miterlimit="8" fill="none" fill-rule="evenodd"/><path d="M1011 955 1011 900" stroke="#000000" stroke-width="24.0625" stroke-linecap="round" stroke-miterlimit="8" fill="none" fill-rule="evenodd"/><path d="M926 996.167C926 981.163 938.163 969 953.167 969L1061.83 969C1076.84 969 1089 981.163 1089 996.167L1089 1126.83C1089 1141.84 1076.84 1154 1061.83 1154L953.167 1154C938.163 1154 926 1141.84 926 1126.83Z" stroke="#000000" stroke-width="24.0625" stroke-miterlimit="8" fill="none" fill-rule="evenodd"/><path d="M762 1419 1318 1419 1318 1601 1308.64 1601 1308.64 1510.87 772.151 1510.87 772.151 1601 762 1601Z" stroke="#000000" stroke-width="24.0625" stroke-miterlimit="8" fill="none" fill-rule="evenodd"/></g></svg>