<svg width="96" height="96" xmlns="http://www.w3.org/2000/svg" xmlns:xlink="http://www.w3.org/1999/xlink" xml:space="preserve" overflow="hidden"><g transform="translate(-592 -312)"><path d="M621 396 659 396 659 402 621 402Z" stroke="#000000" stroke-width="4" fill="none"/><path d="M658 337 655 337C655.002 329.871 649.985 323.726 643 322.3L643 318 637 318 637 322.3C630.015 323.726 624.998 329.871 625 337L622 337 622 341 658 341Z" stroke="#000000" stroke-width="4" fill="none"/><path d="M621 369 621 354 614 355 614 359 610 359 610 364 614 364 614 368 621 369Z" stroke="#000000" stroke-width="4" fill="none"/><path d="M670 359 666 359 666 355 659 354 659 369 666 368 666 364 670 364 670 359Z" stroke="#000000" stroke-width="4" fill="none"/><path d="M625 345 625 392 655 392 655 345ZM640 370C635.029 370 631 365.971 631 361 631 356.029 635.029 352 640 352 644.971 352 649 356.029 649 361 649 365.971 644.971 370 640 370Z" stroke="#000000" stroke-width="4" fill="none"/><path d="M641.692 364.706 643.801 362.061 643.048 358.762 640 357.294 636.952 358.762 636.199 362.061 638.308 364.706 641.692 364.706Z" stroke="#000000" stroke-width="4" fill="none"/></g></svg>